<svg xmlns="http://www.w3.org/2000/svg" xmlns:xlink="http://www.w3.org/1999/xlink" width="100" height="25" viewBox="0 0 100 25">
          <defs>
            <path id="a" d="M18.256.026H0v24.289h18.256V.026z" />
            <path id="c" d="M5.33.026H.279V23.77h5.053V.026z" />
            <path id="e" d="M.213 17.63h15.698V.192H.213V17.63z" />
          </defs>
          <g fill="none" fill-rule="evenodd">
            <g transform="translate(0 .278)">
              <mask id="b" fill="#fff">
                <use xlink:href="#a" />
              </mask>
              <path fill="#FEFEFE" d="M13.202 2.932a2.908 2.908 0 0 1 2.91-2.906h2.144v23.853h-4.81v-1.685h-.122c-.423.699-2.016 2.12-4.99 2.12C3.524 24.315 0 20.359 0 15.28c0-5.72 4.396-8.872 8.242-8.872 3.448 0 4.96 1.532 4.96 1.532V2.932zM9.155 19.6c3.168 0 4.323-2.587 4.323-4.353 0-2.04-1.46-4.231-4.259-4.231-2.924 0-4.292 2.285-4.292 4.23 0 2.618 1.857 4.354 4.228 4.354z" mask="url(#b)" />
            </g>
            <path fill="#FEFEFE" d="M24.833 13.729c.207-1.004 1.216-2.89 3.832-2.89 2.618 0 3.62 1.886 3.833 2.89h-7.665zm12.715 2.07c0-5.141-3.774-9.218-8.915-9.218-5.143 0-8.855 4.349-8.855 9.065 0 5.02 4.106 8.948 8.947 8.948 1.736 0 3.409-.517 4.81-1.524 1.43-.973 2.618-2.434 3.437-4.319H33.05c-.742 0-1.418.278-1.93.732-.578.51-1.306.854-2.394.854-1.978 0-3.65-1.192-3.956-3.198h12.658c.064-.398.12-.671.12-1.34z" />
            <g transform="translate(38.906 .278)">
              <mask id="d" fill="#fff">
                <use xlink:href="#c" />
              </mask>
              <path fill="#FEFEFE" d="M.278 2.932A2.908 2.908 0 0 1 3.186.026H5.33V23.77H.278V2.932z" mask="url(#d)" />
            </g>
            <path fill="#FEFEFE" d="M85.678 13.729c.207-1.004 1.216-2.892 3.832-2.892 2.62 0 3.624 1.888 3.833 2.892h-7.665zm12.717 2.07c0-5.141-3.775-9.22-8.916-9.22-5.143 0-8.855 4.35-8.855 9.067 0 5.022 4.107 8.948 8.948 8.948 1.734 0 3.407-.517 4.808-1.524 1.43-.973 2.618-2.43 3.44-4.319h-3.924c-.742 0-1.416.278-1.931.732-.58.51-1.307.854-2.393.854-1.98 0-3.65-1.192-3.957-3.2h12.658c.064-.396.122-.67.122-1.339z" />
            <g transform="translate(46.2 6.965)">
              <mask id="f" fill="#fff">
                <use xlink:href="#e" />
              </mask>
              <path fill="#FEFEFE" d="M.213 3.1A2.906 2.906 0 0 1 3.12.194h2.143v9.343c0 1.155 0 3.379 2.708 3.379 1.46 0 2.89-.763 2.89-3.44V3.102A2.908 2.908 0 0 1 13.77.193h2.14v16.89H11.14v-1.797h-.067c-1.033 2.162-3.1 2.343-4.38 2.343-1.036 0-3.469-.244-4.961-2.13C.394 13.824.213 12.609.213 10.297V3.101z" mask="url(#f)" />
            </g>
            <path fill="#FEFEFE" d="M70.25 22.799a2.906 2.906 0 0 1-2.39 1.249h-4.519l6.545-8.914-5.814-7.976h6.06l2.558 4.157 2.052-2.788a2.906 2.906 0 0 1 2.468-1.37h4.36l-5.69 7.854 6.546 9.037h-6.183l-3.377-5.236-2.617 3.987zM98.181 23.014h.3c.146 0 .242-.02.296-.063a.213.213 0 0 0 .078-.171.186.186 0 0 0-.04-.123.207.207 0 0 0-.104-.08.721.721 0 0 0-.248-.028h-.282v.465zm-.25.868V22.34h.53c.18 0 .314.014.392.043a.39.39 0 0 1 .195.15.412.412 0 0 1 .072.225c0 .112-.04.21-.121.295a.481.481 0 0 1-.32.14c.056.023.098.05.129.08.064.063.14.165.229.307l.189.302h-.304l-.137-.242c-.109-.193-.195-.313-.26-.36-.045-.037-.112-.053-.199-.053h-.145v.655h-.25zm.63-1.988c-.204 0-.399.052-.59.155-.19.103-.338.25-.446.442-.106.192-.16.392-.16.6a1.206 1.206 0 0 0 .6 1.035c.189.104.388.157.595.157.204 0 .403-.053.594-.157.19-.106.337-.254.442-.443.104-.188.157-.387.157-.592a1.21 1.21 0 0 0-.16-.6 1.096 1.096 0 0 0-.449-.442 1.209 1.209 0 0 0-.584-.155zm0-.237c.24 0 .473.063.703.186.229.124.406.3.535.527a1.452 1.452 0 0 1 .002 1.43c-.125.23-.3.408-.529.531a1.428 1.428 0 0 1-1.428 0 1.328 1.328 0 0 1-.528-.53 1.453 1.453 0 0 1-.19-.71c0-.25.065-.49.191-.72.13-.229.31-.404.538-.528a1.47 1.47 0 0 1 .705-.186z" />
          </g>
        </svg>